<svg width="20" height="20" viewBox="0 0 20 20" fill="none" xmlns="http://www.w3.org/2000/svg">
<path fill-rule="evenodd" clip-rule="evenodd" d="M8.75179 1.16895C9.1314 0.950195 9.56185 0.835041 10 0.835041C10.4382 0.835041 10.8686 0.950205 11.2483 1.16897L11.25 1.16998L17.0833 4.5033C17.463 4.72251 17.7784 5.0377 17.9978 5.41726C18.2172 5.79682 18.3329 6.2274 18.3333 6.66581V13.3342C18.3329 13.7726 18.2172 14.2032 17.9978 14.5827C17.7784 14.9623 17.463 15.2775 17.0833 15.4967L17.0801 15.4985L11.25 18.83L11.2485 18.8309C10.8688 19.0497 10.4383 19.165 10 19.165C9.56175 19.165 9.13121 19.0498 8.75154 18.8309L8.75 18.83L2.91988 15.4985L2.91667 15.4967C2.53699 15.2775 2.22164 14.9623 2.00224 14.5827C1.78285 14.2032 1.66712 13.7726 1.66667 13.3342V6.66581C1.66712 6.2274 1.78285 5.79682 2.00224 5.41726C2.22164 5.0377 2.537 4.72251 2.91667 4.50331L2.91988 4.50146L8.75179 1.16895ZM10 2.50171C9.85372 2.50171 9.71002 2.54021 9.58333 2.61335L9.58012 2.61521L3.75 5.94669L3.74869 5.94745C3.62271 6.02048 3.51807 6.12526 3.44519 6.25134C3.37212 6.37775 3.33355 6.52115 3.33333 6.66716V13.3328C3.33355 13.4788 3.37212 13.6222 3.44519 13.7487C3.51807 13.8747 3.62272 13.9795 3.74869 14.0526L3.75 14.0533L9.58334 17.3866C9.71002 17.4598 9.85372 17.4983 10 17.4983C10.1463 17.4983 10.29 17.4598 10.4167 17.3866L10.4199 17.3848L16.25 14.0533L16.2513 14.0525C16.3773 13.9795 16.4819 13.8747 16.5548 13.7487C16.6279 13.6221 16.6665 13.4786 16.6667 13.3325V6.66752C16.6665 6.52138 16.6279 6.37786 16.5548 6.25134C16.4819 6.12526 16.3773 6.02049 16.2513 5.94745L16.25 5.94669L10.4167 2.61336C10.29 2.54022 10.1463 2.50171 10 2.50171Z" fill="white"/>
<path fill-rule="evenodd" clip-rule="evenodd" d="M2.00366 5.38273C2.23411 4.98434 2.74388 4.84821 3.14227 5.07866L10 9.04562L16.8577 5.07866C17.2561 4.84821 17.7659 4.98434 17.9963 5.38273C18.2268 5.78111 18.0907 6.29089 17.6923 6.52134L10.4173 10.7297C10.1591 10.879 9.84087 10.879 9.58273 10.7297L2.30773 6.52134C1.90935 6.29089 1.77321 5.78111 2.00366 5.38273Z" fill="white"/>
<path fill-rule="evenodd" clip-rule="evenodd" d="M10 9.16667C10.4602 9.16667 10.8333 9.53976 10.8333 10V18.4C10.8333 18.8602 10.4602 19.2333 10 19.2333C9.53976 19.2333 9.16667 18.8602 9.16667 18.4V10C9.16667 9.53976 9.53976 9.16667 10 9.16667Z" fill="white"/>
</svg>
