<svg width="80" height="80" viewBox="0 0 80 80" fill="none" xmlns="http://www.w3.org/2000/svg">
<path d="M16 16C16 9.37258 21.3726 4 28 4H40V28H28C21.3726 28 16 22.6274 16 16Z" fill="#EF476F"/>
<path d="M16 40C16 33.3726 21.3726 28 28 28H40V52H28C21.3726 52 16 46.6274 16 40Z" fill="#118AB2"/>
<path d="M16 64C16 57.3726 21.3726 52 28 52H40V64C40 70.6274 34.6274 76 28 76C21.3726 76 16 70.6274 16 64Z" fill="#06D6A0"/>
<path d="M40 4H52C58.6274 4 64 9.37258 64 16C64 22.6274 58.6274 28 52 28H40V4Z" fill="#F591A9"/>
<path d="M40 40C40 33.3726 45.3726 28 52 28C58.6274 28 64 33.3726 64 40C64 46.6274 58.6274 52 52 52C45.3726 52 40 46.6274 40 40Z" fill="#70B9D1"/>
</svg>
