<svg width="20" height="20" viewBox="0 0 20 20" fill="none" xmlns="http://www.w3.org/2000/svg">
<path fill-rule="evenodd" clip-rule="evenodd" d="M9.99984 0C10.4601 0 10.8332 0.373096 10.8332 0.833333V19.1667C10.8332 19.6269 10.4601 20 9.99984 20C9.5396 20 9.1665 19.6269 9.1665 19.1667V0.833333C9.1665 0.373096 9.5396 0 9.99984 0Z" fill="white"/>
<path fill-rule="evenodd" clip-rule="evenodd" d="M5.26485 4.43168C5.96811 3.72842 6.92194 3.33333 7.9165 3.33333H14.1665C14.6267 3.33333 14.9998 3.70643 14.9998 4.16667C14.9998 4.6269 14.6267 5 14.1665 5H7.9165C7.36397 5 6.83407 5.21949 6.44336 5.61019C6.05266 6.00089 5.83317 6.5308 5.83317 7.08333C5.83317 7.63587 6.05266 8.16577 6.44336 8.55647C6.83407 8.94717 7.36397 9.16667 7.9165 9.16667H12.0832C13.0777 9.16667 14.0316 9.56175 14.7348 10.265C15.4381 10.9683 15.8332 11.9221 15.8332 12.9167C15.8332 13.9112 15.4381 14.8651 14.7348 15.5683C14.0316 16.2716 13.0777 16.6667 12.0832 16.6667H4.99984C4.5396 16.6667 4.1665 16.2936 4.1665 15.8333C4.1665 15.3731 4.5396 15 4.99984 15H12.0832C12.6357 15 13.1656 14.7805 13.5563 14.3898C13.947 13.9991 14.1665 13.4692 14.1665 12.9167C14.1665 12.3641 13.947 11.8342 13.5563 11.4435C13.1656 11.0528 12.6357 10.8333 12.0832 10.8333H7.9165C6.92194 10.8333 5.96811 10.4382 5.26485 9.73498C4.56159 9.03172 4.1665 8.0779 4.1665 7.08333C4.1665 6.08877 4.56159 5.13494 5.26485 4.43168Z" fill="white"/>
</svg>
