<svg width="210" height="24" viewBox="0 0 210 24" fill="none" xmlns="http://www.w3.org/2000/svg">
<g clip-path="url(#clip0_36_2958)">
<path d="M12 6.34315L17.6568 12L20.4853 9.17155C22.0474 7.60949 24.58 7.60949 26.1421 9.17155C27.7043 10.7337 27.7043 13.2663 26.1421 14.8284L23.3137 17.6569L28.9705 23.3137L31.799 20.4853C36.4853 15.799 36.4853 8.20099 31.799 3.51472C27.1127 -1.17157 19.5147 -1.17157 14.8284 3.51472L12 6.34315Z" fill="#25292B"/>
<path d="M6.34315 0.686523L12 6.34339L9.17155 9.17179C7.60949 10.7339 7.60949 13.2666 9.17155 14.8287C10.7337 16.3907 13.2663 16.3907 14.8284 14.8287L17.6568 12.0002L23.3137 17.6571L20.4853 20.4855C15.799 25.1718 8.20099 25.1718 3.51472 20.4855C-1.17157 15.7992 -1.17157 8.20123 3.51472 3.51495L6.34315 0.686523Z" fill="#25292B"/>
<path d="M50.2639 17.2686L46.8337 5.28027H49.6025L51.5868 13.61H51.6865L53.8755 5.28027H56.2463L58.4301 13.6276H58.5351L60.5198 5.28027H63.2883L59.858 17.2686H57.3879L55.1048 9.43051H55.0113L52.734 17.2686H50.2639Z" fill="#25292B"/>
<path d="M66.9059 17.4441C65.9811 17.4441 65.1849 17.2568 64.5177 16.8821C63.8543 16.5036 63.3429 15.969 62.9839 15.2782C62.625 14.5836 62.4453 13.7621 62.4453 12.8138C62.4453 11.8889 62.625 11.0772 62.9839 10.3787C63.3429 9.68018 63.8481 9.1358 64.5 8.74554C65.1557 8.35528 65.9242 8.16016 66.8065 8.16016C67.3996 8.16016 67.9518 8.25576 68.4628 8.44702C68.9779 8.63432 69.4267 8.91726 69.8091 9.29577C70.1956 9.67433 70.4961 10.1504 70.7108 10.7241C70.9255 11.2938 71.0326 11.9611 71.0326 12.726V13.4109H63.4405V11.8655H68.6853C68.6853 11.5065 68.6074 11.1885 68.4512 10.9114C68.295 10.6343 68.0787 10.4178 67.8013 10.2616C67.5281 10.1016 67.2104 10.0216 66.8473 10.0216C66.4686 10.0216 66.1332 10.1095 65.8406 10.2851C65.5517 10.4568 65.3255 10.689 65.1615 10.9816C64.9974 11.2704 64.9138 11.5924 64.9097 11.9475V13.4168C64.9097 13.8617 64.9917 14.246 65.1557 14.5699C65.3234 14.8938 65.5595 15.1436 65.8641 15.3192C66.1682 15.4948 66.5292 15.5826 66.9467 15.5826C67.224 15.5826 67.4774 15.5436 67.7078 15.4655C67.9382 15.3875 68.1351 15.2704 68.2992 15.1143C68.4628 14.9582 68.5876 14.767 68.6738 14.5407L70.9799 14.6929C70.8628 15.247 70.623 15.7309 70.2599 16.1446C69.901 16.5543 69.4366 16.8743 68.867 17.1046C68.3008 17.3309 67.6472 17.4441 66.9059 17.4441Z" fill="#25292B"/>
<path d="M71.8825 17.2686V5.28027H74.3761V9.78759H74.4519C74.5615 9.54565 74.7194 9.29979 74.9262 9.05002C75.1368 8.79637 75.41 8.58563 75.7459 8.41782C76.0855 8.24614 76.5066 8.16026 77.0102 8.16026C77.6659 8.16026 78.2708 8.33198 78.8247 8.67538C79.379 9.01491 79.822 9.5281 80.1537 10.2149C80.4854 10.8978 80.6511 11.7544 80.6511 12.7847C80.6511 13.7876 80.4892 14.6344 80.1652 15.3252C79.8455 16.012 79.4082 16.533 78.8539 16.8881C78.3038 17.2393 77.6873 17.4149 77.0045 17.4149C76.5202 17.4149 76.1086 17.3349 75.7694 17.1749C75.4335 17.0149 75.1587 16.8139 74.944 16.572C74.7293 16.3261 74.5652 16.0783 74.4519 15.8286H74.3411V17.2686H71.8825ZM74.3233 12.773C74.3233 13.3076 74.3975 13.7739 74.5459 14.172C74.6942 14.57 74.9085 14.8803 75.1896 15.1027C75.4706 15.3212 75.8123 15.4305 76.2141 15.4305C76.62 15.4305 76.9632 15.3193 77.2443 15.0969C77.5253 14.8705 77.738 14.5583 77.8822 14.1603C78.0306 13.7583 78.1048 13.2959 78.1048 12.773C78.1048 12.2539 78.0326 11.7974 77.8884 11.4032C77.7438 11.0091 77.5311 10.7008 77.2501 10.4783C76.969 10.2559 76.6237 10.1447 76.2141 10.1447C75.8081 10.1447 75.4649 10.252 75.1838 10.4666C74.9069 10.6813 74.6942 10.9856 74.5459 11.3798C74.3975 11.7739 74.3233 12.2383 74.3233 12.773Z" fill="#25292B"/>
<path d="M88.7787 17.2686H84.5287V5.28027H88.8137C90.0195 5.28027 91.0576 5.52028 91.928 6.00029C92.7979 6.47639 93.4676 7.16125 93.9357 8.05493C94.408 8.94856 94.6441 10.0178 94.6441 11.2627C94.6441 12.5115 94.408 13.5847 93.9357 14.4822C93.4676 15.3798 92.7942 16.0686 91.916 16.5486C91.042 17.0286 89.9961 17.2686 88.7787 17.2686ZM87.0636 15.0969H88.6732C89.4224 15.0969 90.0529 14.9642 90.5639 14.6988C91.079 14.4295 91.4656 14.0139 91.7231 13.452C91.9844 12.8861 92.1151 12.1564 92.1151 11.2627C92.1151 10.3769 91.9844 9.65296 91.7231 9.09102C91.4656 8.52905 91.0811 8.11538 90.5697 7.85003C90.0587 7.58468 89.4282 7.45199 88.679 7.45199H87.0636V15.0969Z" fill="#25292B"/>
<path d="M99.7477 17.4441C98.823 17.4441 98.0268 17.2568 97.3596 16.8821C96.6961 16.5036 96.1847 15.969 95.8258 15.2782C95.4668 14.5836 95.2872 13.7621 95.2872 12.8138C95.2872 11.8889 95.4668 11.0772 95.8258 10.3787C96.1847 9.68018 96.6904 9.1358 97.3419 8.74554C97.9975 8.35528 98.7665 8.16016 99.6484 8.16016C100.241 8.16016 100.794 8.25576 101.305 8.44702C101.82 8.63432 102.269 8.91726 102.651 9.29577C103.037 9.67433 103.338 10.1504 103.553 10.7241C103.767 11.2938 103.875 11.9611 103.875 12.726V13.4109H96.2824V11.8655H101.527C101.527 11.5065 101.449 11.1885 101.293 10.9114C101.137 10.6343 100.921 10.4178 100.644 10.2616C100.37 10.1016 100.052 10.0216 99.6892 10.0216C99.3109 10.0216 98.975 10.1095 98.6824 10.2851C98.3936 10.4568 98.1673 10.689 98.0033 10.9816C97.8397 11.2704 97.7556 11.5924 97.7519 11.9475V13.4168C97.7519 13.8617 97.8335 14.246 97.9975 14.5699C98.1653 14.8938 98.4014 15.1436 98.7059 15.3192C99.0105 15.4948 99.3711 15.5826 99.7889 15.5826C100.066 15.5826 100.32 15.5436 100.55 15.4655C100.78 15.3875 100.977 15.2704 101.141 15.1143C101.305 14.9582 101.43 14.767 101.516 14.5407L103.822 14.6929C103.705 15.247 103.465 15.7309 103.102 16.1446C102.743 16.5543 102.278 16.8743 101.709 17.1046C101.143 17.3309 100.489 17.4441 99.7477 17.4441Z" fill="#25292B"/>
<path d="M112.819 8.27734L109.675 17.2686H106.866L103.722 8.27734H106.357L108.224 14.7105H108.317L110.179 8.27734H112.819Z" fill="#25292B"/>
<path d="M117.079 17.4441C116.154 17.4441 115.358 17.2568 114.691 16.8821C114.027 16.5036 113.516 15.969 113.157 15.2782C112.798 14.5836 112.618 13.7621 112.618 12.8138C112.618 11.8889 112.798 11.0772 113.157 10.3787C113.516 9.68018 114.021 9.1358 114.673 8.74554C115.328 8.35528 116.097 8.16016 116.979 8.16016C117.572 8.16016 118.125 8.25576 118.636 8.44702C119.151 8.63432 119.599 8.91726 119.982 9.29577C120.368 9.67433 120.669 10.1504 120.884 10.7241C121.098 11.2938 121.205 11.9611 121.205 12.726V13.4109H113.613V11.8655H118.858C118.858 11.5065 118.78 11.1885 118.624 10.9114C118.468 10.6343 118.251 10.4178 117.974 10.2616C117.701 10.1016 117.383 10.0216 117.02 10.0216C116.641 10.0216 116.306 10.1095 116.013 10.2851C115.724 10.4568 115.498 10.689 115.334 10.9816C115.17 11.2704 115.087 11.5924 115.082 11.9475V13.4168C115.082 13.8617 115.164 14.246 115.328 14.5699C115.496 14.8938 115.732 15.1436 116.037 15.3192C116.341 15.4948 116.702 15.5826 117.119 15.5826C117.397 15.5826 117.65 15.5436 117.881 15.4655C118.111 15.3875 118.308 15.2704 118.472 15.1143C118.636 14.9582 118.76 14.767 118.847 14.5407L121.153 14.6929C121.036 15.247 120.796 15.7309 120.433 16.1446C120.074 16.5543 119.609 16.8743 119.04 17.1046C118.474 17.3309 117.82 17.4441 117.079 17.4441Z" fill="#25292B"/>
<path d="M124.502 5.28027V17.2686H122.009V5.28027H124.502Z" fill="#25292B"/>
<path d="M129.738 17.4441C128.829 17.4441 128.042 17.2509 127.379 16.8646C126.719 16.4743 126.21 15.9319 125.851 15.2372C125.492 14.5387 125.312 13.729 125.312 12.808C125.312 11.8792 125.492 11.0675 125.851 10.3729C126.21 9.67433 126.719 9.13188 127.379 8.74554C128.042 8.35528 128.829 8.16016 129.738 8.16016C130.647 8.16016 131.431 8.35528 132.091 8.74554C132.755 9.13188 133.266 9.67433 133.625 10.3729C133.983 11.0675 134.163 11.8792 134.163 12.808C134.163 13.729 133.983 14.5387 133.625 15.2372C133.266 15.9319 132.755 16.4743 132.091 16.8646C131.431 17.2509 130.647 17.4441 129.738 17.4441ZM129.75 15.5124C130.163 15.5124 130.509 15.3953 130.786 15.1612C131.062 14.9231 131.271 14.5992 131.412 14.1894C131.556 13.7797 131.629 13.3134 131.629 12.7904C131.629 12.2675 131.556 11.8012 131.412 11.3914C131.271 10.9816 131.062 10.6577 130.786 10.4197C130.509 10.1816 130.163 10.0626 129.75 10.0626C129.332 10.0626 128.981 10.1816 128.696 10.4197C128.415 10.6577 128.202 10.9816 128.058 11.3914C127.917 11.8012 127.847 12.2675 127.847 12.7904C127.847 13.3134 127.917 13.7797 128.058 14.1894C128.202 14.5992 128.415 14.9231 128.696 15.1612C128.981 15.3953 129.332 15.5124 129.75 15.5124Z" fill="#25292B"/>
<path d="M134.961 20.6402V8.27723H137.419V9.78749H137.53C137.64 9.54555 137.797 9.29969 138.004 9.04992C138.215 8.79627 138.488 8.58552 138.824 8.41772C139.164 8.24604 139.585 8.16016 140.088 8.16016C140.744 8.16016 141.349 8.33188 141.903 8.67528C142.457 9.01481 142.9 9.52799 143.232 10.2148C143.564 10.8977 143.729 11.7543 143.729 12.7846C143.729 13.7875 143.567 14.6343 143.243 15.3251C142.924 16.0119 142.486 16.5329 141.932 16.888C141.382 17.2392 140.765 17.4148 140.083 17.4148C139.598 17.4148 139.187 17.3348 138.848 17.1748C138.512 17.0148 138.237 16.8138 138.022 16.5719C137.807 16.326 137.643 16.0782 137.53 15.8285H137.454V20.6402H134.961ZM137.401 12.7729C137.401 13.3075 137.476 13.7738 137.624 14.1719C137.772 14.5699 137.987 14.8802 138.268 15.1026C138.549 15.3211 138.89 15.4304 139.292 15.4304C139.698 15.4304 140.041 15.3192 140.322 15.0968C140.603 14.8704 140.816 14.5582 140.96 14.1602C141.109 13.7582 141.183 13.2958 141.183 12.7729C141.183 12.2538 141.111 11.7972 140.967 11.4031C140.822 11.0089 140.609 10.7007 140.328 10.4782C140.047 10.2558 139.702 10.1446 139.292 10.1446C138.886 10.1446 138.543 10.2519 138.262 10.4665C137.985 10.6812 137.772 10.9855 137.624 11.3797C137.476 11.7738 137.401 12.2382 137.401 12.7729Z" fill="#25292B"/>
<path d="M144.567 17.2685V8.27723H146.944V9.8636H147.05C147.237 9.33678 147.549 8.92114 147.986 8.61676C148.423 8.31239 148.946 8.16016 149.555 8.16016C150.172 8.16016 150.696 8.31432 151.13 8.62261C151.563 8.92699 151.851 9.34065 151.996 9.8636H152.09C152.273 9.34848 152.605 8.93675 153.085 8.62846C153.569 8.31626 154.14 8.16016 154.8 8.16016C155.639 8.16016 156.32 8.42748 156.843 8.96214C157.37 9.49284 157.633 10.246 157.633 11.2216V17.2685H155.145V11.7133C155.145 11.2138 155.013 10.8392 154.747 10.5894C154.482 10.3397 154.15 10.2148 153.752 10.2148C153.299 10.2148 152.946 10.3592 152.692 10.648C152.439 10.9329 152.312 11.3094 152.312 11.7777V17.2685H149.894V11.6607C149.894 11.2197 149.768 10.8685 149.514 10.607C149.264 10.3456 148.934 10.2148 148.525 10.2148C148.248 10.2148 147.998 10.2851 147.775 10.4255C147.557 10.5621 147.383 10.7553 147.254 11.005C147.126 11.2509 147.061 11.5397 147.061 11.8714V17.2685H144.567Z" fill="#25292B"/>
<path d="M162.876 17.4441C161.951 17.4441 161.155 17.2568 160.488 16.8821C159.825 16.5036 159.313 15.969 158.954 15.2782C158.595 14.5836 158.416 13.7621 158.416 12.8138C158.416 11.8889 158.595 11.0772 158.954 10.3787C159.313 9.68018 159.818 9.1358 160.47 8.74554C161.126 8.35528 161.895 8.16016 162.776 8.16016C163.37 8.16016 163.922 8.25576 164.433 8.44702C164.948 8.63432 165.397 8.91726 165.779 9.29577C166.166 9.67433 166.466 10.1504 166.681 10.7241C166.896 11.2938 167.003 11.9611 167.003 12.726V13.4109H159.411V11.8655H164.656C164.656 11.5065 164.578 11.1885 164.422 10.9114C164.265 10.6343 164.049 10.4178 163.772 10.2616C163.498 10.1016 163.18 10.0216 162.818 10.0216C162.439 10.0216 162.103 10.1095 161.811 10.2851C161.522 10.4568 161.296 10.689 161.132 10.9816C160.968 11.2704 160.884 11.5924 160.88 11.9475V13.4168C160.88 13.8617 160.962 14.246 161.126 14.5699C161.294 14.8938 161.53 15.1436 161.834 15.3192C162.139 15.4948 162.5 15.5826 162.917 15.5826C163.194 15.5826 163.448 15.5436 163.678 15.4655C163.908 15.3875 164.105 15.2704 164.269 15.1143C164.433 14.9582 164.558 14.767 164.644 14.5407L166.95 14.6929C166.833 15.247 166.593 15.7309 166.23 16.1446C165.871 16.5543 165.407 16.8743 164.837 17.1046C164.271 17.3309 163.618 17.4441 162.876 17.4441Z" fill="#25292B"/>
<path d="M170.3 12.0704V17.2685H167.806V8.27723H170.183V9.8636H170.288C170.487 9.34065 170.821 8.92699 171.289 8.62261C171.757 8.31432 172.325 8.16016 172.992 8.16016C173.617 8.16016 174.161 8.29677 174.626 8.56995C175.09 8.84308 175.451 9.23334 175.709 9.74068C175.966 10.2441 176.095 10.8451 176.095 11.5436V17.2685H173.601V11.9885C173.605 11.4382 173.465 11.0089 173.18 10.7007C172.895 10.3885 172.503 10.2323 172.003 10.2323C171.668 10.2323 171.371 10.3045 171.113 10.4489C170.86 10.5933 170.661 10.8041 170.517 11.0811C170.376 11.3543 170.304 11.6841 170.3 12.0704Z" fill="#25292B"/>
<path d="M182.019 8.27716V10.1504H176.604V8.27716H182.019ZM177.833 6.12305H180.327V14.5055C180.327 14.7357 180.362 14.9152 180.432 15.044C180.503 15.1689 180.6 15.2567 180.725 15.3074C180.854 15.3582 181.002 15.3835 181.17 15.3835C181.287 15.3835 181.404 15.3738 181.521 15.3542C181.638 15.3308 181.728 15.3133 181.79 15.3016L182.183 17.1572C182.057 17.1962 181.882 17.2411 181.656 17.2918C181.429 17.3465 181.154 17.3796 180.83 17.3913C180.229 17.4147 179.703 17.3347 179.25 17.1513C178.801 16.9679 178.452 16.6831 178.202 16.2967C177.952 15.9104 177.829 15.4225 177.833 14.8333V6.12305Z" fill="#25292B"/>
<path d="M185.856 17.2686V5.28027H190.586C191.495 5.28027 192.27 5.45393 192.91 5.80125C193.55 6.14465 194.038 6.62272 194.373 7.23539C194.713 7.84418 194.882 8.5466 194.882 9.34273C194.882 10.1388 194.711 10.8412 194.367 11.45C194.024 12.0588 193.527 12.5329 192.875 12.8725C192.227 13.212 191.443 13.3817 190.522 13.3817H187.507V11.3505H190.112C190.599 11.3505 191.002 11.2666 191.318 11.0988C191.638 10.9271 191.876 10.691 192.032 10.3905C192.192 10.0861 192.272 9.73686 192.272 9.34273C192.272 8.94465 192.192 8.59733 192.032 8.30074C191.876 8.00028 191.638 7.76807 191.318 7.60418C190.998 7.43637 190.592 7.35247 190.1 7.35247H188.391V17.2686H185.856Z" fill="#25292B"/>
<path d="M195.658 17.2685V8.27722H198.075V9.84599H198.169C198.333 9.28797 198.608 8.86652 198.994 8.58163C199.381 8.29284 199.826 8.14844 200.329 8.14844C200.454 8.14844 200.589 8.15627 200.733 8.17184C200.878 8.18746 201.004 8.20893 201.113 8.23626V10.4489C200.996 10.4138 200.834 10.3826 200.628 10.3553C200.421 10.328 200.232 10.3143 200.06 10.3143C199.693 10.3143 199.365 10.3943 199.076 10.5543C198.792 10.7104 198.565 10.9289 198.398 11.2099C198.234 11.4909 198.152 11.8148 198.152 12.1816V17.2685H195.658Z" fill="#25292B"/>
<path d="M205.223 17.4441C204.314 17.4441 203.527 17.2509 202.864 16.8646C202.204 16.4743 201.695 15.9319 201.336 15.2372C200.977 14.5387 200.797 13.729 200.797 12.808C200.797 11.8792 200.977 11.0675 201.336 10.3729C201.695 9.67433 202.204 9.13188 202.864 8.74554C203.527 8.35528 204.314 8.16016 205.223 8.16016C206.132 8.16016 206.916 8.35528 207.576 8.74554C208.239 9.13188 208.751 9.67433 209.11 10.3729C209.468 11.0675 209.648 11.8792 209.648 12.808C209.648 13.729 209.468 14.5387 209.11 15.2372C208.751 15.9319 208.239 16.4743 207.576 16.8646C206.916 17.2509 206.132 17.4441 205.223 17.4441ZM205.235 15.5124C205.648 15.5124 205.994 15.3953 206.271 15.1612C206.547 14.9231 206.756 14.5992 206.897 14.1894C207.041 13.7797 207.113 13.3134 207.113 12.7904C207.113 12.2675 207.041 11.8012 206.897 11.3914C206.756 10.9816 206.547 10.6577 206.271 10.4197C205.994 10.1816 205.648 10.0626 205.235 10.0626C204.817 10.0626 204.466 10.1816 204.181 10.4197C203.9 10.6577 203.687 10.9816 203.543 11.3914C203.402 11.8012 203.332 12.2675 203.332 12.7904C203.332 13.3134 203.402 13.7797 203.543 14.1894C203.687 14.5992 203.9 14.9231 204.181 15.1612C204.466 15.3953 204.817 15.5124 205.235 15.5124Z" fill="#25292B"/>
</g>
<defs>
<clipPath id="clip0_36_2958">
<rect width="209.76" height="24" fill="white"/>
</clipPath>
</defs>
</svg>
