<svg width="224" height="32" viewBox="0 0 224 32" fill="none" xmlns="http://www.w3.org/2000/svg">
<path d="M16 8.45753L23.5425 16L27.3137 12.2288C29.3965 10.146 32.7734 10.146 34.8562 12.2288C36.939 14.3116 36.939 17.6884 34.8562 19.7712L31.0849 23.5425L38.6274 31.0849L42.3987 27.3137C48.647 21.0653 48.647 10.9347 42.3987 4.68629C36.1503 -1.5621 26.0196 -1.5621 19.7712 4.68629L16 8.45753Z" fill="#06D6A0"/>
<path d="M8.45753 0.915039L16 8.45751L12.2288 12.2287C10.146 14.3115 10.146 17.6884 12.2288 19.7712C14.3116 21.854 17.6884 21.854 19.7712 19.7712L23.5425 16L31.0849 23.5425L27.3137 27.3137C21.0653 33.5621 10.9347 33.5621 4.68629 27.3137C-1.5621 21.0653 -1.5621 10.9347 4.68629 4.68628L8.45753 0.915039Z" fill="#EF476F"/>
<path d="M61.9233 24.029L57.325 7.95812H61.0366L63.6968 19.1245H63.8302L66.765 7.95812H69.9431L72.87 19.1481H73.0113L75.6715 7.95812H79.3831L74.7847 24.029H71.4733L68.4129 13.5217H68.2873L65.2348 24.029H61.9233Z" fill="#25292B"/>
<path d="M84.2322 24.2644C82.9924 24.2644 81.9252 24.0133 81.0306 23.5111C80.1413 23.0036 79.456 22.2869 78.9747 21.361C78.4934 20.4298 78.2528 19.3286 78.2528 18.0573C78.2528 16.8175 78.4934 15.7294 78.9747 14.7929C79.456 13.8565 80.1334 13.1267 81.0071 12.6036C81.886 12.0805 82.9166 11.8189 84.0988 11.8189C84.894 11.8189 85.6343 11.9471 86.3196 12.2034C87.0101 12.4545 87.6117 12.8338 88.1244 13.3412C88.6423 13.8487 89.0451 14.4869 89.3329 15.2559C89.6206 16.0197 89.7645 16.9143 89.7645 17.9396V18.8577H79.5868V16.7861H86.6178C86.6178 16.3048 86.5131 15.8785 86.3039 15.507C86.0946 15.1356 85.8043 14.8453 85.4329 14.636C85.0667 14.4215 84.6403 14.3143 84.1538 14.3143C83.6463 14.3143 83.1964 14.432 82.8041 14.6674C82.417 14.8976 82.1135 15.2088 81.8938 15.6012C81.6741 15.9883 81.5616 16.4199 81.5564 16.896V18.8656C81.5564 19.462 81.6662 19.9773 81.886 20.4115C82.1109 20.8457 82.4274 21.1805 82.8355 21.4159C83.2435 21.6513 83.7274 21.769 84.2872 21.769C84.6586 21.769 84.9986 21.7167 85.3073 21.6121C85.616 21.5074 85.8801 21.3505 86.0999 21.1412C86.3196 20.932 86.487 20.6756 86.6021 20.3722L89.6938 20.5763C89.5369 21.3191 89.2152 21.9678 88.7286 22.5223C88.2473 23.0716 87.6248 23.5006 86.861 23.8093C86.1025 24.1127 85.2262 24.2644 84.2322 24.2644Z" fill="#25292B"/>
<path d="M90.9038 24.029V7.95812H94.2467V14.0004H94.3487C94.4952 13.676 94.7071 13.3465 94.9843 13.0116C95.2668 12.6716 95.633 12.3891 96.0829 12.1642C96.5381 11.934 97.1031 11.8189 97.7779 11.8189C98.6568 11.8189 99.4676 12.0491 100.211 12.5094C100.953 12.9646 101.547 13.6525 101.992 14.5732C102.436 15.4887 102.659 16.637 102.659 18.0181C102.659 19.3626 102.442 20.4978 102.007 21.4237C101.579 22.3445 100.993 23.0429 100.25 23.5189C99.5121 23.9897 98.6856 24.2252 97.7701 24.2252C97.1214 24.2252 96.5695 24.1179 96.1143 23.9034C95.6644 23.6889 95.2956 23.4195 95.0079 23.0952C94.7202 22.7656 94.5004 22.4334 94.3487 22.0986H94.1996V24.029H90.9038ZM94.1761 18.0024C94.1761 18.7191 94.2755 19.3443 94.4743 19.8779C94.6731 20.4115 94.9608 20.8274 95.3375 21.1255C95.7141 21.4185 96.1719 21.565 96.7107 21.565C97.2548 21.565 97.7151 21.4159 98.0918 21.1177C98.4685 20.8143 98.7536 20.3958 98.9471 19.8622C99.1459 19.3233 99.2453 18.7034 99.2453 18.0024C99.2453 17.3066 99.1485 16.6946 98.955 16.1662C98.7614 15.6378 98.4763 15.2245 98.0996 14.9263C97.723 14.6282 97.26 14.4791 96.7107 14.4791C96.1666 14.4791 95.7063 14.6229 95.3296 14.9106C94.9582 15.1984 94.6731 15.6064 94.4743 16.1348C94.2755 16.6632 94.1761 17.2857 94.1761 18.0024Z" fill="#25292B"/>
<path d="M107.857 24.029V7.95812H114.291C115.474 7.95812 116.46 8.13337 117.25 8.48387C118.04 8.83438 118.633 9.3209 119.031 9.94343C119.429 10.5607 119.627 11.2722 119.627 12.0778C119.627 12.7056 119.502 13.2575 119.251 13.7336C119 14.2044 118.654 14.5915 118.215 14.895C117.781 15.1931 117.284 15.405 116.724 15.5306V15.6875C117.336 15.7137 117.909 15.8863 118.442 16.2054C118.981 16.5245 119.418 16.9718 119.753 17.5473C120.088 18.1175 120.255 18.7976 120.255 19.5875C120.255 20.4402 120.043 21.2014 119.62 21.871C119.201 22.5354 118.581 23.0612 117.76 23.4483C116.938 23.8354 115.926 24.029 114.723 24.029H107.857ZM111.255 21.2511H114.025C114.971 21.2511 115.662 21.0706 116.096 20.7097C116.53 20.3435 116.747 19.8569 116.747 19.2501C116.747 18.8054 116.64 18.4131 116.426 18.073C116.211 17.733 115.905 17.4662 115.508 17.2726C115.115 17.0791 114.647 16.9823 114.103 16.9823H111.255V21.2511ZM111.255 14.6831H113.773C114.239 14.6831 114.652 14.602 115.013 14.4398C115.379 14.2724 115.667 14.037 115.876 13.7336C116.091 13.4302 116.198 13.0666 116.198 12.6428C116.198 12.0622 115.992 11.5939 115.578 11.2382C115.17 10.8825 114.59 10.7046 113.836 10.7046H111.255V14.6831Z" fill="#25292B"/>
<path d="M129.028 18.897V11.9758H132.371V24.029H129.161V21.8396H129.036C128.764 22.5459 128.311 23.1135 127.678 23.5425C127.05 23.9714 126.284 24.1859 125.379 24.1859C124.573 24.1859 123.864 24.0028 123.252 23.6366C122.64 23.2704 122.162 22.7499 121.816 22.075C121.476 21.4002 121.304 20.5919 121.298 19.6503V11.9758H124.641V19.0539C124.646 19.7654 124.837 20.3278 125.214 20.741C125.591 21.1543 126.096 21.361 126.729 21.361C127.131 21.361 127.508 21.2694 127.859 21.0863C128.209 20.898 128.492 20.6207 128.706 20.2545C128.926 19.8883 129.033 19.4358 129.028 18.897Z" fill="#25292B"/>
<path d="M133.94 24.029V11.9758H137.283V24.029H133.94ZM135.619 10.4221C135.122 10.4221 134.696 10.2573 134.34 9.92774C133.989 9.59293 133.814 9.19273 133.814 8.72713C133.814 8.26677 133.989 7.8718 134.34 7.54222C134.696 7.20741 135.122 7.04001 135.619 7.04001C136.116 7.04001 136.54 7.20741 136.89 7.54222C137.246 7.8718 137.424 8.26677 137.424 8.72713C137.424 9.19273 137.246 9.59293 136.89 9.92774C136.54 10.2573 136.116 10.4221 135.619 10.4221Z" fill="#25292B"/>
<path d="M142.198 7.95812V24.029H138.855V7.95812H142.198Z" fill="#25292B"/>
<path d="M148.213 24.2252C147.297 24.2252 146.468 23.9897 145.725 23.5189C144.988 23.0429 144.402 22.3445 143.967 21.4237C143.539 20.4978 143.324 19.3626 143.324 18.0181C143.324 16.637 143.546 15.4887 143.991 14.5732C144.436 13.6525 145.027 12.9646 145.764 12.5094C146.507 12.0491 147.321 11.8189 148.205 11.8189C148.88 11.8189 149.442 11.934 149.892 12.1642C150.347 12.3891 150.713 12.6716 150.991 13.0116C151.273 13.3465 151.488 13.676 151.634 14.0004H151.736V7.95812H155.071V24.029H151.775V22.0986H151.634C151.477 22.4334 151.255 22.7656 150.967 23.0952C150.685 23.4195 150.316 23.6889 149.861 23.9034C149.411 24.1179 148.861 24.2252 148.213 24.2252ZM149.272 21.565C149.811 21.565 150.266 21.4185 150.638 21.1255C151.014 20.8274 151.302 20.4115 151.501 19.8779C151.705 19.3443 151.807 18.7191 151.807 18.0024C151.807 17.2857 151.707 16.6632 151.509 16.1348C151.31 15.6064 151.022 15.1984 150.645 14.9106C150.269 14.6229 149.811 14.4791 149.272 14.4791C148.723 14.4791 148.26 14.6282 147.883 14.9263C147.507 15.2245 147.221 15.6378 147.028 16.1662C146.834 16.6946 146.738 17.3066 146.738 18.0024C146.738 18.7034 146.834 19.3233 147.028 19.8622C147.227 20.3958 147.512 20.8143 147.883 21.1177C148.26 21.4159 148.723 21.565 149.272 21.565Z" fill="#25292B"/>
<path d="M156.715 24.029V11.9758H160.058V24.029H156.715ZM158.394 10.4221C157.897 10.4221 157.471 10.2573 157.115 9.92774C156.764 9.59293 156.589 9.19273 156.589 8.72713C156.589 8.26677 156.764 7.8718 157.115 7.54222C157.471 7.20741 157.897 7.04001 158.394 7.04001C158.891 7.04001 159.315 7.20741 159.665 7.54222C160.021 7.8718 160.199 8.26677 160.199 8.72713C160.199 9.19273 160.021 9.59293 159.665 9.92774C159.315 10.2573 158.891 10.4221 158.394 10.4221Z" fill="#25292B"/>
<path d="M164.973 17.0608V24.029H161.631V11.9758H164.816V14.1024H164.958C165.224 13.4014 165.672 12.8469 166.3 12.4388C166.927 12.0255 167.688 11.8189 168.583 11.8189C169.42 11.8189 170.15 12.002 170.772 12.3682C171.395 12.7344 171.879 13.2575 172.224 13.9376C172.569 14.6125 172.742 15.4181 172.742 16.3545V24.029H169.399V16.9509C169.404 16.2133 169.216 15.6378 168.834 15.2245C168.452 14.806 167.926 14.5968 167.257 14.5968C166.807 14.5968 166.409 14.6935 166.064 14.8871C165.724 15.0807 165.457 15.3632 165.264 15.7346C165.075 16.1008 164.979 16.5428 164.973 17.0608Z" fill="#25292B"/>
<path d="M179.702 28.8C178.619 28.8 177.691 28.6509 176.916 28.3527C176.147 28.0598 175.535 27.6596 175.08 27.1521C174.625 26.6447 174.329 26.0745 174.193 25.4415L177.285 25.0256C177.379 25.2662 177.528 25.4911 177.732 25.7004C177.936 25.9097 178.206 26.0771 178.541 26.2026C178.881 26.3334 179.294 26.3988 179.78 26.3988C180.508 26.3988 181.107 26.2209 181.577 25.8652C182.053 25.5147 182.292 24.9262 182.292 24.0996V21.8946H182.15C182.004 22.2294 181.784 22.5459 181.491 22.8441C181.198 23.1423 180.821 23.3855 180.361 23.5738C179.901 23.7622 179.351 23.8563 178.713 23.8563C177.808 23.8563 176.984 23.6471 176.241 23.2286C175.504 22.8048 174.915 22.1587 174.476 21.2903C174.042 20.4167 173.825 19.3129 173.825 17.9789C173.825 16.6135 174.047 15.473 174.492 14.5575C174.936 13.642 175.527 12.9567 176.265 12.5016C177.008 12.0465 177.821 11.8189 178.705 11.8189C179.38 11.8189 179.945 11.934 180.4 12.1642C180.856 12.3891 181.222 12.6716 181.499 13.0116C181.781 13.3465 181.999 13.676 182.15 14.0004H182.276V11.9758H185.595V24.1467C185.595 25.172 185.344 26.03 184.842 26.7205C184.34 27.4111 183.644 27.929 182.754 28.2743C181.87 28.6248 180.853 28.8 179.702 28.8ZM179.773 21.3453C180.311 21.3453 180.767 21.2119 181.138 20.9451C181.515 20.673 181.802 20.2859 182.001 19.7837C182.205 19.2762 182.307 18.6694 182.307 17.9632C182.307 17.2569 182.208 16.6449 182.009 16.1269C181.81 15.6038 181.523 15.1984 181.146 14.9106C180.769 14.6229 180.311 14.4791 179.773 14.4791C179.223 14.4791 178.76 14.6282 178.384 14.9263C178.007 15.2193 177.722 15.6273 177.528 16.1505C177.335 16.6736 177.238 17.2779 177.238 17.9632C177.238 18.6589 177.335 19.2606 177.528 19.768C177.727 20.2702 178.012 20.66 178.384 20.9372C178.76 21.2092 179.223 21.3453 179.773 21.3453Z" fill="#25292B"/>
<path d="M191.223 24.029V7.95812H197.563C198.782 7.95812 199.82 8.19092 200.678 8.65651C201.536 9.11687 202.19 9.75772 202.64 10.579C203.095 11.3951 203.323 12.3368 203.323 13.404C203.323 14.4712 203.093 15.4129 202.632 16.229C202.172 17.0451 201.505 17.6807 200.631 18.1358C199.763 18.5909 198.711 18.8185 197.477 18.8185H193.436V16.0956H196.928C197.581 16.0956 198.12 15.9831 198.544 15.7581C198.973 15.528 199.292 15.2115 199.501 14.8086C199.716 14.4006 199.823 13.9324 199.823 13.404C199.823 12.8704 199.716 12.4048 199.501 12.0072C199.292 11.6044 198.973 11.2931 198.544 11.0734C198.115 10.8485 197.571 10.736 196.912 10.736H194.62V24.029H191.223Z" fill="#25292B"/>
<path d="M204.362 24.029V11.9758H207.603V14.0789H207.729C207.948 13.3308 208.317 12.7658 208.835 12.3839C209.353 11.9968 209.949 11.8032 210.624 11.8032C210.792 11.8032 210.972 11.8137 211.166 11.8346C211.359 11.8555 211.529 11.8843 211.676 11.9209V14.8871C211.519 14.84 211.302 14.7982 211.024 14.7616C210.747 14.7249 210.493 14.7066 210.263 14.7066C209.772 14.7066 209.332 14.8139 208.945 15.0284C208.563 15.2376 208.26 15.5306 208.035 15.9072C207.815 16.2839 207.705 16.7181 207.705 17.2098V24.029H204.362Z" fill="#25292B"/>
<path d="M217.184 24.2644C215.965 24.2644 214.911 24.0054 214.022 23.4875C213.138 22.9644 212.455 22.2372 211.974 21.306C211.492 20.3696 211.252 19.2841 211.252 18.0495C211.252 16.8044 211.492 15.7163 211.974 14.7851C212.455 13.8487 213.138 13.1215 214.022 12.6036C214.911 12.0805 215.965 11.8189 217.184 11.8189C218.403 11.8189 219.454 12.0805 220.339 12.6036C221.228 13.1215 221.913 13.8487 222.394 14.7851C222.876 15.7163 223.116 16.8044 223.116 18.0495C223.116 19.2841 222.876 20.3696 222.394 21.306C221.913 22.2372 221.228 22.9644 220.339 23.4875C219.454 24.0054 218.403 24.2644 217.184 24.2644ZM217.2 21.6748C217.754 21.6748 218.217 21.5179 218.589 21.204C218.96 20.8849 219.24 20.4507 219.428 19.9014C219.622 19.3521 219.719 18.727 219.719 18.0259C219.719 17.3249 219.622 16.6998 219.428 16.1505C219.24 15.6012 218.96 15.167 218.589 14.8479C218.217 14.5288 217.754 14.3692 217.2 14.3692C216.64 14.3692 216.169 14.5288 215.787 14.8479C215.411 15.167 215.125 15.6012 214.932 16.1505C214.744 16.6998 214.649 17.3249 214.649 18.0259C214.649 18.727 214.744 19.3521 214.932 19.9014C215.125 20.4507 215.411 20.8849 215.787 21.204C216.169 21.5179 216.64 21.6748 217.2 21.6748Z" fill="#25292B"/>
</svg>
