<svg width="20" height="20" viewBox="0 0 20 20" fill="none" xmlns="http://www.w3.org/2000/svg">
<path fill-rule="evenodd" clip-rule="evenodd" d="M18.0893 1.07741C18.4148 1.40285 18.4148 1.93049 18.0893 2.25592L17.0119 3.33334L18.9227 5.24408C19.2481 5.56952 19.2481 6.09715 18.9227 6.42259L16.006 9.33926C15.6806 9.6647 15.1529 9.6647 14.8275 9.33926L12.9167 7.42851L10.628 9.71721C10.8842 10.0637 11.0988 10.4404 11.2665 10.8396C11.5432 11.4982 11.6869 12.205 11.6893 12.9194C11.6916 13.6338 11.5527 14.3416 11.2804 15.002C11.0082 15.6625 10.6079 16.2626 10.1028 16.7677C9.59763 17.2729 8.99756 17.6731 8.3371 17.9454C7.67664 18.2176 6.96884 18.3566 6.25447 18.3542C5.54009 18.3518 4.83324 18.2081 4.17462 17.9314C3.516 17.6547 2.91862 17.2505 2.41688 16.742L2.41062 16.7356C1.42394 15.714 0.878 14.3457 0.890341 12.9255C0.902683 11.5053 1.47235 10.1467 2.47664 9.14241C3.48094 8.13812 4.8395 7.56845 6.25974 7.55611C7.40376 7.54617 8.51406 7.89849 9.43661 8.55162L16.9108 1.07741C17.2362 0.751977 17.7639 0.751977 18.0893 1.07741ZM8.93494 10.2966C8.92719 10.2897 8.91953 10.2825 8.91197 10.2752C8.20471 9.59215 7.25746 9.21417 6.27422 9.22271C5.29098 9.23126 4.35043 9.62564 3.65515 10.3209C2.95987 11.0162 2.56549 11.9568 2.55695 12.94C2.54841 13.9217 2.92524 14.8676 3.6064 15.5746C3.95311 15.9251 4.36556 16.2039 4.82016 16.3948C5.27613 16.5864 5.76548 16.6859 6.26005 16.6875C6.75462 16.6892 7.24463 16.593 7.70187 16.4045C8.15911 16.216 8.57455 15.9389 8.92426 15.5892C9.27398 15.2395 9.55106 14.824 9.73956 14.3668C9.92806 13.9096 10.0243 13.4196 10.0226 12.925C10.0209 12.4304 9.92146 11.9411 9.72991 11.4851C9.54355 11.0415 9.27361 10.638 8.93494 10.2966ZM14.0952 6.25L15.4167 7.57149L17.1549 5.83334L15.8334 4.51185L14.0952 6.25Z" fill="white"/>
</svg>
