<svg width="16" height="16" viewBox="0 0 16 16" fill="none" xmlns="http://www.w3.org/2000/svg">
<g clip-path="url(#clip0_1_3763)">
<path d="M13.26 15.2867C13.2 15.2867 13.14 15.2867 13.08 15.28C10.92 15.0467 8.83331 14.3 7.02665 13.1267C5.34665 12.06 3.89331 10.6067 2.82665 8.92668C1.64665 7.11334 0.906647 5.01334 0.673314 2.86001C0.646647 2.57334 0.673314 2.30001 0.766647 2.03334C0.853314 1.76668 0.999981 1.52668 1.18665 1.32001C1.37331 1.11334 1.59998 0.953344 1.85331 0.84001C2.11331 0.726677 2.38665 0.666677 2.66665 0.666677H4.66665C5.14665 0.653344 5.61331 0.833344 5.98665 1.15334C6.35331 1.46668 6.59331 1.90668 6.65998 2.38668C6.73998 2.98001 6.87998 3.56001 7.09331 4.12001C7.22665 4.48001 7.25331 4.86668 7.17331 5.24001C7.09331 5.61334 6.90665 5.96001 6.63998 6.22668L6.15998 6.70668C6.94665 7.93334 7.98665 8.98001 9.21998 9.76668L9.69998 9.28668C9.97331 9.01334 10.3133 8.83334 10.6933 8.75334C11.0666 8.67334 11.4533 8.70001 11.8133 8.83334C12.3666 9.04001 12.9533 9.18668 13.54 9.26668C14.0333 9.33334 14.4733 9.58001 14.7933 9.95334C15.1066 10.3267 15.28 10.8 15.2666 11.2867V13.28C15.2666 13.5533 15.2133 13.8267 15.1 14.0867C14.9866 14.34 14.8266 14.5667 14.62 14.76C14.4133 14.9533 14.1733 15.0933 13.9066 15.18C13.7 15.2533 13.4866 15.2867 13.2666 15.2867H13.26ZM4.67998 2.00001H2.66665C2.57331 2.00001 2.47998 2.02001 2.39998 2.06001C2.31331 2.10001 2.23998 2.15334 2.17998 2.22001C2.11998 2.28668 2.06665 2.36668 2.03998 2.46001C2.01331 2.54668 1.99998 2.64001 2.00665 2.73334C2.21331 4.67334 2.88665 6.56668 3.94665 8.21334C4.91331 9.73334 6.22665 11.0467 7.74665 12.0133C9.38665 13.08 11.2733 13.7467 13.2133 13.96C13.2933 13.96 13.3866 13.96 13.4733 13.9267C13.56 13.8933 13.64 13.8467 13.7133 13.7867C13.78 13.72 13.84 13.6467 13.8733 13.56C13.9133 13.4733 13.9266 13.3867 13.9266 13.2933V11.2733C13.9266 11.1133 13.8733 10.9533 13.7666 10.8267C13.66 10.7 13.5133 10.62 13.3533 10.6C12.6666 10.5067 11.9866 10.34 11.34 10.1C11.22 10.0533 11.0866 10.0467 10.9666 10.0733C10.84 10.1 10.7266 10.16 10.64 10.2533L9.79331 11.1C9.57998 11.3133 9.25331 11.3533 8.99331 11.2067C7.21998 10.2 5.75331 8.72668 4.73998 6.95334C4.59331 6.69334 4.63331 6.36668 4.84665 6.15334L5.69331 5.30668C5.77998 5.22001 5.83998 5.10668 5.86665 4.98001C5.89331 4.85334 5.88665 4.72668 5.83998 4.60668C5.59331 3.95334 5.42665 3.27334 5.33331 2.58668C5.31331 2.43334 5.23331 2.28668 5.10665 2.18001C4.98665 2.07334 4.83331 2.02001 4.67331 2.02001L4.67998 2.00001Z" fill="#25292B"/>
</g>
<defs>
<clipPath id="clip0_1_3763">
<rect width="16" height="16" fill="white"/>
</clipPath>
</defs>
</svg>
