<svg width="80" height="80" viewBox="0 0 80 80" fill="none" xmlns="http://www.w3.org/2000/svg">
<path d="M8 16C8 11.5817 11.5817 8 16 8H24V24H8V16Z" fill="#06D6A0"/>
<path d="M40 48C40 43.5817 43.5817 40 48 40H56V56H40V48Z" fill="#FFD166"/>
<path d="M40 24C40 15.1634 47.1634 8 56 8C64.8366 8 72 15.1634 72 24C72 32.8366 64.8366 40 56 40C47.1634 40 40 32.8366 40 24Z" fill="#06D6A0"/>
<path d="M8 56C8 47.1634 15.1634 40 24 40C32.8366 40 40 47.1634 40 56C40 64.8366 32.8366 72 24 72C15.1634 72 8 64.8366 8 56Z" fill="#EF476F"/>
<path d="M40 16C40 11.5817 36.4183 8 32 8H24V24H40V16Z" fill="#118AB2"/>
<path d="M72 48C72 43.5817 68.4183 40 64 40H56V56H72V48Z" fill="#EF476F"/>
<path d="M8 24H24V40H16C11.5817 40 8 36.4183 8 32V24Z" fill="#118AB2"/>
<path d="M40 56H56V72H48C43.5817 72 40 68.4183 40 64V56Z" fill="#EF476F"/>
<path d="M40 24H24V40H32C36.4183 40 40 36.4183 40 32V24Z" fill="#06D6A0"/>
<path d="M72 56H56V72H64C68.4183 72 72 68.4183 72 64V56Z" fill="#FFD166"/>
</svg>
