<svg width="20" height="20" viewBox="0 0 20 20" fill="none" xmlns="http://www.w3.org/2000/svg">
<g clip-path="url(#clip0_212_9965)">
<path fill-rule="evenodd" clip-rule="evenodd" d="M13.5772 0.244078C13.9027 -0.0813592 14.4303 -0.0813592 14.7558 0.244078L18.0891 3.57741C18.4145 3.90285 18.4145 4.43049 18.0891 4.75592L14.7558 8.08926C14.4303 8.41469 13.9027 8.41469 13.5772 8.08926C13.2518 7.76382 13.2518 7.23618 13.5772 6.91074L16.3213 4.16667L13.5772 1.42259C13.2518 1.09715 13.2518 0.569515 13.5772 0.244078Z" fill="white"/>
<path fill-rule="evenodd" clip-rule="evenodd" d="M5.83317 5C5.17013 5 4.53424 5.26339 4.0654 5.73223C3.59656 6.20107 3.33317 6.83696 3.33317 7.5V9.16667C3.33317 9.6269 2.96007 10 2.49984 10C2.0396 10 1.6665 9.6269 1.6665 9.16667V7.5C1.6665 6.39493 2.10549 5.33512 2.88689 4.55372C3.66829 3.77232 4.7281 3.33333 5.83317 3.33333H17.4998C17.9601 3.33333 18.3332 3.70643 18.3332 4.16667C18.3332 4.6269 17.9601 5 17.4998 5H5.83317Z" fill="white"/>
<path fill-rule="evenodd" clip-rule="evenodd" d="M6.42243 11.9107C6.74786 12.2362 6.74786 12.7638 6.42243 13.0893L3.67835 15.8333L6.42243 18.5774C6.74786 18.9028 6.74786 19.4305 6.42243 19.7559C6.09699 20.0814 5.56935 20.0814 5.24392 19.7559L1.91058 16.4226C1.58514 16.0972 1.58514 15.5695 1.91058 15.2441L5.24392 11.9107C5.56935 11.5853 6.09699 11.5853 6.42243 11.9107Z" fill="white"/>
<path fill-rule="evenodd" clip-rule="evenodd" d="M17.4998 10C17.9601 10 18.3332 10.3731 18.3332 10.8333V12.5C18.3332 13.6051 17.8942 14.6649 17.1128 15.4463C16.3314 16.2277 15.2716 16.6667 14.1665 16.6667H2.49984C2.0396 16.6667 1.6665 16.2936 1.6665 15.8333C1.6665 15.3731 2.0396 15 2.49984 15H14.1665C14.8295 15 15.4654 14.7366 15.9343 14.2678C16.4031 13.7989 16.6665 13.163 16.6665 12.5V10.8333C16.6665 10.3731 17.0396 10 17.4998 10Z" fill="white"/>
</g>
<defs>
<clipPath id="clip0_212_9965">
<rect width="20" height="20" fill="white"/>
</clipPath>
</defs>
</svg>
