<svg width="80" height="80" viewBox="0 0 80 80" fill="none" xmlns="http://www.w3.org/2000/svg">
<path d="M20 72C15.5817 72 12 68.4183 12 64L12 56L28 56L28 72L20 72Z" fill="#70B9D1"/>
<path d="M20 24C15.5817 24 12 27.5817 12 32L12 40L28 40L28 24L20 24Z" fill="#70B9D1"/>
<rect width="16" height="16" transform="matrix(4.37114e-08 1 1 -4.37114e-08 28 24)" fill="#118AB2"/>
<rect width="16" height="16" transform="matrix(4.37114e-08 1 1 -4.37114e-08 28 40)" fill="#118AB2"/>
<rect width="16" height="16" transform="matrix(4.37114e-08 1 1 -4.37114e-08 28 56)" fill="#118AB2"/>
<path d="M44 24L44 40L60 40C64.4183 40 68 36.4183 68 32C68 27.5817 64.4183 24 60 24L44 24Z" fill="#118AB2"/>
<path d="M12 40L12 56L28 56L28 40L12 40Z" fill="#70B9D1"/>
<path d="M44 40L44 56L60 56C64.4183 56 68 52.4183 68 48C68 43.5817 64.4183 40 60 40L44 40Z" fill="#118AB2"/>
<path d="M44 56L44 72L60 72C64.4183 72 68 68.4183 68 64C68 59.5817 64.4183 56 60 56L44 56Z" fill="#118AB2"/>
<path d="M28 8L28 24L44 24L44 16C44 11.5817 40.4183 8 36 8L28 8Z" fill="#118AB2"/>
</svg>
