<svg width="16" height="16" viewBox="0 0 16 16" fill="none" xmlns="http://www.w3.org/2000/svg">
<path fill-rule="evenodd" clip-rule="evenodd" d="M0.666672 1.33329C0.666672 0.965103 0.965149 0.666626 1.33334 0.666626H8C8.17682 0.666626 8.34639 0.736864 8.47141 0.861888L14.1995 6.58996C14.572 6.96468 14.7811 7.47159 14.7811 7.99996C14.7811 8.52833 14.572 9.03523 14.1995 9.40996L14.1981 9.41136L9.41834 14.1911C9.23265 14.3769 9.0119 14.5246 8.76922 14.6252C8.52642 14.7259 8.26617 14.7777 8.00334 14.7777C7.74051 14.7777 7.48026 14.7259 7.23746 14.6252C6.99472 14.5246 6.7742 14.3771 6.58848 14.1912L0.862209 8.47164C0.737016 8.34659 0.666672 8.1769 0.666672 7.99996V1.33329ZM2.00001 1.99996V7.72359L7.53113 13.2483L7.53167 13.2488C7.59359 13.3108 7.66711 13.36 7.74804 13.3935C7.82897 13.4271 7.91573 13.4443 8.00334 13.4443C8.09095 13.4443 8.1777 13.4271 8.25863 13.3935C8.33956 13.36 8.41309 13.3108 8.475 13.2488L13.2539 8.46996L13.2545 8.46934C13.3783 8.3445 13.4477 8.17579 13.4477 7.99996C13.4477 7.82412 13.3783 7.65542 13.2545 7.53057L13.2539 7.52996L7.72386 1.99996H2.00001Z" fill="#118AB2"/>
<path fill-rule="evenodd" clip-rule="evenodd" d="M4 4.66663C4 4.29844 4.29848 3.99996 4.66667 3.99996H4.67334C5.04153 3.99996 5.34 4.29844 5.34 4.66663C5.34 5.03482 5.04153 5.33329 4.67334 5.33329H4.66667C4.29848 5.33329 4 5.03482 4 4.66663Z" fill="#118AB2"/>
</svg>
