<svg width="20" height="20" viewBox="0 0 20 20" fill="none" xmlns="http://www.w3.org/2000/svg">
<path fill-rule="evenodd" clip-rule="evenodd" d="M8.40516 1.32822C8.53891 1.02728 8.83734 0.833334 9.16667 0.833334C10.0507 0.833334 10.8986 1.18452 11.5237 1.80964C12.1488 2.43477 12.5 3.28261 12.5 4.16667V6.66667H16.3791C16.7397 6.66333 17.0968 6.73806 17.4259 6.88574C17.7565 7.03413 18.0509 7.25264 18.2887 7.52611C18.5265 7.79959 18.702 8.1215 18.8031 8.46953C18.9041 8.81757 18.9283 9.18342 18.8739 9.54172L17.7239 17.0416C17.7239 17.0418 17.7239 17.0414 17.7239 17.0416C17.6334 17.6375 17.3305 18.1813 16.8713 18.5716C16.4132 18.961 15.8301 19.1722 15.229 19.1667H3.33333C2.67029 19.1667 2.03441 18.9033 1.56557 18.4344C1.09673 17.9656 0.833334 17.3297 0.833334 16.6667V10.8333C0.833334 10.1703 1.09673 9.53441 1.56557 9.06557C2.03441 8.59673 2.67029 8.33333 3.33333 8.33333H5.29177L8.40516 1.32822ZM5 10H3.33333C3.11232 10 2.90036 10.0878 2.74408 10.2441C2.5878 10.4004 2.5 10.6123 2.5 10.8333V16.6667C2.5 16.8877 2.5878 17.0996 2.74408 17.2559C2.90036 17.4122 3.11232 17.5 3.33333 17.5H5V10ZM6.66667 17.5H15.2428C15.4437 17.5023 15.6387 17.4319 15.7919 17.3017C15.945 17.1716 16.046 16.9904 16.0761 16.7917L17.2261 9.29161C17.2261 9.2915 17.2261 9.29172 17.2261 9.29161C17.2442 9.17228 17.2361 9.05012 17.2025 8.93422C17.1688 8.81821 17.1103 8.7109 17.031 8.61974C16.9518 8.52859 16.8536 8.45575 16.7434 8.40629C16.6332 8.35682 16.5136 8.33191 16.3928 8.33328L16.3833 8.33339L11.6667 8.33333C11.2064 8.33333 10.8333 7.96024 10.8333 7.5V4.16667C10.8333 3.72464 10.6577 3.30072 10.3452 2.98816C10.1553 2.79829 9.92434 2.65896 9.67319 2.57883L6.66667 9.34351V17.5Z" fill="white"/>
</svg>
