<svg width="20" height="20" viewBox="0 0 20 20" fill="none" xmlns="http://www.w3.org/2000/svg">
<g clip-path="url(#clip0_2_797)">
<path fill-rule="evenodd" clip-rule="evenodd" d="M19.7559 4.41075C20.0814 4.73618 20.0814 5.26382 19.7559 5.58926L11.8393 13.5059C11.5138 13.8314 10.9862 13.8314 10.6607 13.5059L7.08333 9.92851L1.42259 15.5893C1.09715 15.9147 0.569515 15.9147 0.244078 15.5893C-0.0813592 15.2638 -0.0813592 14.7362 0.244078 14.4107L6.49408 8.16075C6.81951 7.83531 7.34715 7.83531 7.67259 8.16075L11.25 11.7382L18.5774 4.41075C18.9028 4.08531 19.4305 4.08531 19.7559 4.41075Z" fill="white"/>
<path fill-rule="evenodd" clip-rule="evenodd" d="M13.3333 5C13.3333 4.53976 13.7064 4.16667 14.1667 4.16667H19.1667C19.6269 4.16667 20 4.53976 20 5V10C20 10.4602 19.6269 10.8333 19.1667 10.8333C18.7064 10.8333 18.3333 10.4602 18.3333 10V5.83333H14.1667C13.7064 5.83333 13.3333 5.46024 13.3333 5Z" fill="white"/>
</g>
<defs>
<clipPath id="clip0_2_797">
<rect width="20" height="20" fill="white"/>
</clipPath>
</defs>
</svg>
